
        <svg xmlns="http://www.w3.org/2000/svg" xmlns:xlink="http://www.w3.org/1999/xlink" version="1.1" width="3187.5" 
        height="843.0735358813428" viewBox="0 0 3187.5 843.0735358813428">
			<rect fill="#020202" width="3187.5" height="843.0735358813428"/>
			<g transform="scale(9.375) translate(10, 10)">
				<defs id="SvgjsDefs5490"><linearGradient id="SvgjsLinearGradient5495"><stop id="SvgjsStop5496" stop-color="#147d6c" offset="0"></stop><stop id="SvgjsStop5497" stop-color="#1effff" offset="1"></stop></linearGradient><linearGradient id="SvgjsLinearGradient5498"><stop id="SvgjsStop5499" stop-color="#147d6c" offset="0"></stop><stop id="SvgjsStop5500" stop-color="#1effff" offset="1"></stop></linearGradient></defs><g id="SvgjsG5491" featureKey="S6ay6y-0" transform="matrix(1.2500038147089072,0,0,1.2500038147089072,-12.500345707994715,-27.53620444856094)" fill="url(#SvgjsLinearGradient5495)"><g xmlns="http://www.w3.org/2000/svg"><path fill="url(#SvgjsLinearGradient5495)" d="M58.948,32.986v34.735c0,3.998,2.288,7.461,5.627,9.151V23.835C61.236,25.525,58.948,28.988,58.948,32.986z   "></path><rect x="71.007" y="22.735" fill="url(#SvgjsLinearGradient5495)" width="2.714" height="55.236"></rect><rect x="75.229" y="22.735" fill="url(#SvgjsLinearGradient5495)" width="2.813" height="55.236"></rect><path fill="url(#SvgjsLinearGradient5495)" d="M83.971,23.642v53.422C87.525,75.456,90,71.878,90,67.721V32.986C90,28.83,87.525,25.251,83.971,23.642z"></path><path fill="url(#SvgjsLinearGradient5495)" d="M66.083,23.218v54.271c0.981,0.313,2.028,0.481,3.116,0.481H69.5V22.735h-0.301   C68.111,22.735,67.064,22.905,66.083,23.218z"></path><path fill="url(#SvgjsLinearGradient5495)" d="M79.549,22.735v55.236h0.2c0.94,0,1.851-0.127,2.714-0.363V23.099c-0.863-0.237-1.773-0.364-2.714-0.364   H79.549z"></path><path fill="url(#SvgjsLinearGradient5495)" d="M30.699,26.666L11.675,55.729c-2.189,3.346-2.171,7.496-0.303,10.738l29.047-44.375   C36.7,21.677,32.888,23.321,30.699,26.666z"></path><rect x="4.795" y="47.188" transform="matrix(0.5477 -0.8367 0.8367 0.5477 -25.956 49.0772)" fill="url(#SvgjsLinearGradient5495)" width="55.238" height="2.714"></rect><rect x="8.367" y="49.478" transform="matrix(0.5477 -0.8367 0.8367 0.5477 -26.2977 53.1244)" fill="url(#SvgjsLinearGradient5495)" width="55.238" height="2.814"></rect><path fill="url(#SvgjsLinearGradient5495)" d="M27.494,77.251c3.856,0.601,7.886-1.038,10.162-4.517L56.68,43.672c2.276-3.478,2.166-7.827,0.072-11.12   L27.494,77.251z"></path><path fill="url(#SvgjsLinearGradient5495)" d="M44.889,23.704c-0.909-0.595-1.877-1.026-2.871-1.303L12.295,67.809c0.651,0.801,1.434,1.517,2.343,2.11   l0.251,0.165l30.252-46.216L44.889,23.704z"></path><path fill="url(#SvgjsLinearGradient5495)" d="M53.717,29.482l-0.168-0.11L23.297,75.588l0.167,0.109c0.786,0.515,1.617,0.906,2.47,1.182l29.853-45.606   C55.193,30.601,54.503,29.997,53.717,29.482z"></path></g></g><g id="SvgjsG5492" featureKey="j5pGhi-0" transform="matrix(3.0286862375611903,0,0,3.0286862375611903,116.92399342835719,-1.1020973106868919)" fill="url(#SvgjsLinearGradient5498)"><path d="M6.5918 8.203 q2.470703125 0 4.1015625 1.787109375 q1.50390625 1.630859375 1.50390625 3.876953125 q0.01953125 5.546875 0 5.634765625 l-1.4551 0 l0 -2.4316 q-1.142578125 2.12890625 -4.150390625 2.3828125 q-2.4609375 0 -4.018554688 -1.674804688 t-1.5576 -3.9111 q0 -2.2265625 1.474609375 -3.8671875 q1.630859375 -1.796875 4.1015625 -1.796875 z M6.5918 9.551 q-1.708984375 0 -2.939453125 1.26953125 t-1.2305 3.0664 q0 1.162109375 0.6298828125 2.236328125 t2.1338 1.8164 q3.76953125 0.83984375 5.361328125 -3.427734375 q0.087890625 -1.3671875 -0.29296875 -2.6171875 q-0.2734375 -0.56640625 -0.751953125 -1.07421875 q-1.201171875 -1.26953125 -2.91015625 -1.26953125 z M15.35154375 4.3260000000000005 q0.46875 0 0.8056640625 0.33203125 t0.33691 0.80078 t-0.33691 0.80566 t-0.80566 0.33691 t-0.80078 -0.33691 t-0.33203 -0.80566 t0.33203 -0.80078 t0.80078 -0.33203 z M14.66794375 8.73 l1.377 0 l0 10.713 l-1.377 0 l0 -10.713 z M28.79928125 17.3633 q0.87890625 -1.46484375 1.0546875 -2.880859375 q0 -10.16601563 0 -10.14648438 l-1.3672 0 l0 5.9766 q-0.869140625 -1.064453125 -1.943359375 -1.586914063 t-2.3535 -0.52246 q-2.265625 0 -3.876953125 1.650390625 t-1.6113 4.0039 q0 2.314453125 1.62109375 3.955078125 t3.9063 1.6406 q1.30859375 0 2.456054688 -0.5029296875 t2.1143 -1.5869 z M24.34568125 18.1348 q-1.162109375 0 -2.133789063 -0.5712890625 t-1.5479 -1.5869 t-0.57617 -2.168 q0 -1.1328125 0.5810546875 -2.172851563 t1.5625 -1.6113 t2.0947 -0.57129 q1.1328125 0 2.1484375 0.5712890625 t1.5625 1.5527 t0.54688 2.1924 q0 1.865234375 -1.23046875 3.115234375 t-3.0078 1.25 z M32.148478125 14.541 l0 -1.2891 q0.15625 -0.966796875 0.44921875 -1.572265625 q0.68359375 -1.6796875 1.8359375 -2.4609375 t1.9141 -0.78125 q0.56640625 0 1.2109375 0.37109375 l-0.71289 1.1523 q-0.908203125 -0.33203125 -1.801757813 0.537109375 t-1.2354 1.8945 q-0.25390625 0.908203125 -0.25390625 3.408203125 l0 3.623 l-1.4063 0 l0 -4.8828 z M39.208965625 4.3260000000000005 q0.46875 0 0.8056640625 0.33203125 t0.33691 0.80078 t-0.33691 0.80566 t-0.80566 0.33691 t-0.80078 -0.33691 t-0.33203 -0.80566 t0.33203 -0.80078 t0.80078 -0.33203 z M38.525365625 8.73 l1.377 0 l0 10.713 l-1.377 0 l0 -10.713 z M52.656703125 17.3633 q0.87890625 -1.46484375 1.0546875 -2.880859375 q0 -10.16601563 0 -10.14648438 l-1.3672 0 l0 5.9766 q-0.869140625 -1.064453125 -1.943359375 -1.586914063 t-2.3535 -0.52246 q-2.265625 0 -3.876953125 1.650390625 t-1.6113 4.0039 q0 2.314453125 1.62109375 3.955078125 t3.9063 1.6406 q1.30859375 0 2.456054688 -0.5029296875 t2.1143 -1.5869 z M48.203103125 18.1348 q-1.162109375 0 -2.133789063 -0.5712890625 t-1.5479 -1.5869 t-0.57617 -2.168 q0 -1.1328125 0.5810546875 -2.172851563 t1.5625 -1.6113 t2.0947 -0.57129 q1.1328125 0 2.1484375 0.5712890625 t1.5625 1.5527 t0.54688 2.1924 q0 1.865234375 -1.23046875 3.115234375 t-3.0078 1.25 z M65.547 15.6348 l1.1523 0.61523 q-0.556640625 1.123046875 -1.30859375 1.806640625 t-1.6895 1.04 t-2.1191 0.35645 q-2.6171875 0 -4.091796875 -1.713867188 t-1.4746 -3.8721 q0 -2.041015625 1.25 -3.6328125 q1.58203125 -2.03125 4.248046875 -2.03125 q2.724609375 0 4.365234375 2.080078125 q1.162109375 1.46484375 1.171875 3.65234375 l-9.6191 0 q0.0390625 1.875 1.19140625 3.071289063 t2.8418 1.1963 q0.8203125 0 1.591796875 -0.2880859375 t1.3135 -0.75684 t1.1768 -1.5234 z M65.547 12.7539 q-0.2734375 -1.103515625 -0.80078125 -1.762695313 t-1.3965 -1.0645 t-1.8262 -0.40527 q-1.572265625 0 -2.705078125 1.015625 q-0.8203125 0.7421875 -1.240234375 2.216796875 l7.9688 0 z"></path></g>
			</g>
		</svg>
	