
        <svg xmlns="http://www.w3.org/2000/svg" xmlns:xlink="http://www.w3.org/1999/xlink" version="1.1" width="3600" height="2697.835314820297">
            <linearGradient id="SvgjsLinearGradient5495"><stop id="SvgjsStop5496" stop-color="#147d6c" offset="0"/><stop id="SvgjsStop5497" stop-color="#1effff" offset="1"/></linearGradient><linearGradient id="SvgjsLinearGradient5498"><stop id="SvgjsStop5499" stop-color="#147d6c" offset="0"/><stop id="SvgjsStop5500" stop-color="#1effff" offset="1"/></linearGradient>
            <g id="SvgjsG5491" featureKey="S6ay6y-0" transform="matrix(1.2500038147089072,0,0,1.2500038147089072,-12.500345707994715,-27.53620444856094)" fill="url(#SvgjsLinearGradient5495)"><g xmlns="http://www.w3.org/2000/svg"><path fill="url(#SvgjsLinearGradient5495)" d="M58.948,32.986v34.735c0,3.998,2.288,7.461,5.627,9.151V23.835C61.236,25.525,58.948,28.988,58.948,32.986z   "/><rect x="71.007" y="22.735" fill="url(#SvgjsLinearGradient5495)" width="2.714" height="55.236"/><rect x="75.229" y="22.735" fill="url(#SvgjsLinearGradient5495)" width="2.813" height="55.236"/><path fill="url(#SvgjsLinearGradient5495)" d="M83.971,23.642v53.422C87.525,75.456,90,71.878,90,67.721V32.986C90,28.83,87.525,25.251,83.971,23.642z"/><path fill="url(#SvgjsLinearGradient5495)" d="M66.083,23.218v54.271c0.981,0.313,2.028,0.481,3.116,0.481H69.5V22.735h-0.301   C68.111,22.735,67.064,22.905,66.083,23.218z"/><path fill="url(#SvgjsLinearGradient5495)" d="M79.549,22.735v55.236h0.2c0.94,0,1.851-0.127,2.714-0.363V23.099c-0.863-0.237-1.773-0.364-2.714-0.364   H79.549z"/><path fill="url(#SvgjsLinearGradient5495)" d="M30.699,26.666L11.675,55.729c-2.189,3.346-2.171,7.496-0.303,10.738l29.047-44.375   C36.7,21.677,32.888,23.321,30.699,26.666z"/><rect x="4.795" y="47.188" transform="matrix(0.5477 -0.8367 0.8367 0.5477 -25.956 49.0772)" fill="url(#SvgjsLinearGradient5495)" width="55.238" height="2.714"/><rect x="8.367" y="49.478" transform="matrix(0.5477 -0.8367 0.8367 0.5477 -26.2977 53.1244)" fill="url(#SvgjsLinearGradient5495)" width="55.238" height="2.814"/><path fill="url(#SvgjsLinearGradient5495)" d="M27.494,77.251c3.856,0.601,7.886-1.038,10.162-4.517L56.68,43.672c2.276-3.478,2.166-7.827,0.072-11.12   L27.494,77.251z"/><path fill="url(#SvgjsLinearGradient5495)" d="M44.889,23.704c-0.909-0.595-1.877-1.026-2.871-1.303L12.295,67.809c0.651,0.801,1.434,1.517,2.343,2.11   l0.251,0.165l30.252-46.216L44.889,23.704z"/><path fill="url(#SvgjsLinearGradient5495)" d="M53.717,29.482l-0.168-0.11L23.297,75.588l0.167,0.109c0.786,0.515,1.617,0.906,2.47,1.182l29.853-45.606   C55.193,30.601,54.503,29.997,53.717,29.482z"/></g></g>
        </svg>
        